<svg width="35" height="32" viewBox="0 0 35 32" fill="none" xmlns="http://www.w3.org/2000/svg">
<g clip-path="url(#clip0_1_16)">
<path d="M12.0312 19.022C12.1975 20.93 13.8469 22.416 16.8044 22.592V24H18.1169V22.582C21.1794 22.386 22.9688 20.89 22.9688 18.718C22.9688 16.744 21.5994 15.726 19.1516 15.198L18.1169 14.974V11.14C19.4294 11.276 20.265 11.932 20.4662 12.84H22.7675C22.6012 11.002 20.8775 9.564 18.1169 9.408V8H16.8044V9.438C14.1903 9.672 12.4075 11.11 12.4075 13.144C12.4075 14.944 13.7331 16.088 15.9359 16.558L16.8044 16.754V20.822C15.4591 20.636 14.5687 19.962 14.3675 19.022H12.0312ZM16.7934 14.69C15.5028 14.416 14.8028 13.858 14.8028 13.018C14.8028 12.078 15.5575 11.374 16.8044 11.168V14.688L16.7934 14.69ZM18.3072 17.076C19.8756 17.408 20.5997 17.946 20.5997 18.896C20.5997 19.98 19.6984 20.724 18.1169 20.86V17.036L18.3072 17.076Z" fill="#E9E9E9"/>
<path d="M17.5 30C13.4389 30 9.54408 28.525 6.67243 25.8995C3.80078 23.274 2.1875 19.713 2.1875 16C2.1875 12.287 3.80078 8.72601 6.67243 6.1005C9.54408 3.475 13.4389 2 17.5 2C21.5611 2 25.4559 3.475 28.3276 6.1005C31.1992 8.72601 32.8125 12.287 32.8125 16C32.8125 19.713 31.1992 23.274 28.3276 25.8995C25.4559 28.525 21.5611 30 17.5 30ZM17.5 32C22.1413 32 26.5925 30.3143 29.8744 27.3137C33.1563 24.3131 35 20.2435 35 16C35 11.7565 33.1563 7.68687 29.8744 4.68629C26.5925 1.68571 22.1413 0 17.5 0C12.8587 0 8.40752 1.68571 5.12563 4.68629C1.84374 7.68687 0 11.7565 0 16C0 20.2435 1.84374 24.3131 5.12563 27.3137C8.40752 30.3143 12.8587 32 17.5 32Z" fill="#E9E9E9"/>
<path d="M17.5 27C14.3091 27 11.2489 25.8411 8.99262 23.7782C6.73632 21.7153 5.46875 18.9174 5.46875 16C5.46875 13.0826 6.73632 10.2847 8.99262 8.22183C11.2489 6.15893 14.3091 5 17.5 5C20.6909 5 23.7511 6.15893 26.0074 8.22183C28.2637 10.2847 29.5312 13.0826 29.5312 16C29.5312 18.9174 28.2637 21.7153 26.0074 23.7782C23.7511 25.8411 20.6909 27 17.5 27ZM17.5 28C19.2236 28 20.9303 27.6896 22.5227 27.0866C24.1151 26.4835 25.562 25.5996 26.7808 24.4853C27.9995 23.371 28.9663 22.0481 29.6259 20.5922C30.2855 19.1363 30.625 17.5759 30.625 16C30.625 14.4241 30.2855 12.8637 29.6259 11.4078C28.9663 9.95189 27.9995 8.62902 26.7808 7.51472C25.562 6.40042 24.1151 5.5165 22.5227 4.91345C20.9303 4.31039 19.2236 4 17.5 4C14.019 4 10.6806 5.26428 8.21922 7.51472C5.75781 9.76515 4.375 12.8174 4.375 16C4.375 19.1826 5.75781 22.2348 8.21922 24.4853C10.6806 26.7357 14.019 28 17.5 28Z" fill="#E9E9E9"/>
</g>
<defs>
<clipPath id="clip0_1_16">
<rect width="35" height="32" fill="white"/>
</clipPath>
</defs>
</svg>
