<?xml version="1.0" encoding="UTF-8"?>
<svg version="1.1" viewBox="0 0 1600 1600" width="1280" height="1280" xmlns="http://www.w3.org/2000/svg">
<path transform="translate(112 -.389)" d="m0 0c1.84-0.00435 3.68-0.01 5.53-0.0168 5.05-0.015 10.1-0.0114 15.1-0.00467 5.5 0.00401 11-0.00932 16.5-0.0204 9.63-0.017 19.3-0.0228 28.9-0.0212 13.7 0.00221 27.3-0.0107 41-0.0278 27.7-0.0346 55.5-0.0479 83.2-0.0533 2.98-5.88e-4 5.97-0.00118 8.95-0.00178 0.741-1.46e-4 1.48-2.92e-4 2.24-4.43e-4 16.4-0.00332 32.9-0.0117 49.3-0.0208 6.77-0.00375 13.5-0.00737 20.3-0.011 0.748-4.02e-4 1.5-8.03e-4 2.27-0.00122 42.9-0.0229 85.7-0.0389 129-0.0409 1.6-7.88e-5 3.21-1.58e-4 4.81-2.38e-4 7.24-3.54e-4 14.5-6.72e-4 21.7-9.84e-4 3.23-1.4e-4 6.45-2.85e-4 9.68-4.31e-4 1.62-7.16e-5 3.23-1.41e-4 4.85-2.08e-4 51.1-0.00213 102-0.0312 153-0.0819 38.1-0.0379 76.2-0.0735 114-0.0821 0.767-1.73e-4 1.53-3.47e-4 2.33-5.25e-4 16.8-0.00373 33.7-0.0054 50.5-0.00519 6.03 5.68e-5 12.1-4.81e-5 18.1-2.36e-4 1.5-4.57e-5 3-8.36e-5 4.5-1.14e-4 23.9-5.66e-4 47.7-0.0219 71.6-0.0538 24-0.032 48.1-0.0413 72.1-0.0201 14.9 0.0132 29.8 0.00783 44.7-0.0293 9.52-0.0218 19-0.0179 28.6 0.00638 5.42 0.0131 10.8 0.0155 16.3-0.0134 39-0.195 71.3 4.52 101 32.9 22.1 22 30.1 50.1 30.2 80.6 0.00108 1.81 0.00206 3.63 0.00296 5.44 0.00457 1.94 0.00957 3.89 0.015 5.83 0.0135 5.32 0.021 10.6 0.0274 16 0.00802 5.75 0.0217 11.5 0.0347 17.2 0.0217 9.95 0.0399 19.9 0.0556 29.9 0.0227 14.4 0.0509 28.8 0.0803 43.2 0.0476 23.3 0.0909 46.7 0.131 70 0.0394 22.7 0.0808 45.4 0.125 68 0.00136 0.699 0.00273 1.4 0.00413 2.12 0.0137 7.02 0.0274 14 0.0412 21.1 0.028 14.3 0.0558 28.6 0.0833 42.9 0.00253 1.31 0.00507 2.63 0.00768 3.98 0.0832 43.2 0.16 86.5 0.236 130 1.13-0.933 2.25-1.87 3.38-2.81 0.94-0.783 0.94-0.783 1.9-1.58 1.95-1.69 1.95-1.69 3.73-4.61h2c0.33-0.99 0.66-1.98 1-3h2c0.227-0.552 0.454-1.1 0.688-1.67 1.7-3.02 3.85-5.12 6.3-7.57 0.513-0.516 1.03-1.03 1.55-1.56 1.72-1.73 3.44-3.45 5.17-5.16 1.23-1.24 2.47-2.47 3.7-3.71 3.35-3.36 6.71-6.72 10.1-10.1 3.52-3.52 7.04-7.04 10.6-10.6 5.92-5.92 11.8-11.8 17.8-17.8 6.83-6.82 13.7-13.6 20.5-20.5 5.86-5.87 11.7-11.7 17.6-17.6 3.5-3.5 7-7 10.5-10.5 3.3-3.3 6.6-6.6 9.9-9.89 1.2-1.2 2.41-2.41 3.61-3.61 25.6-25.7 54.4-42.9 91.5-43.3 27.9 0.15 53.8 10 74.6 28.4 1.02 0.806 1.02 0.806 2.06 1.63 19.3 15.5 29.5 40 34.9 63.4 0.227 0.897 0.454 1.79 0.688 2.72 6.08 27.4-3.02 57.4-17.6 80.6-2.74 4.16-5.88 7.95-9.13 11.7-0.695 0.914-1.39 1.83-2.11 2.77-0.625 0.736-1.25 1.47-1.89 2.23h-2c-0.41 0.897-0.41 0.897-0.828 1.81-1.14 2.12-2.23 3.5-3.93 5.19-0.845 0.853-0.845 0.853-1.71 1.72-0.929 0.922-0.929 0.922-1.88 1.86-0.658 0.661-1.32 1.32-1.99 2-2.21 2.22-4.43 4.43-6.64 6.64-1.58 1.59-3.17 3.17-4.75 4.76-4.3 4.31-8.61 8.62-12.9 12.9-4.5 4.5-9 9-13.5 13.5-8.04 8.04-16.1 16.1-24.1 24.1-7.3 7.29-14.6 14.6-21.9 21.9-8.46 8.48-16.9 16.9-25.4 25.4-4.49 4.48-8.97 8.97-13.5 13.5-4.21 4.22-8.43 8.43-12.6 12.6-1.55 1.55-3.1 3.1-4.65 4.65-2.11 2.11-4.22 4.22-6.33 6.32-0.619 0.624-1.24 1.25-1.88 1.89-4.23 4.2-4.23 4.2-6.46 4.2-0.402 0.897-0.402 0.897-0.812 1.81-1.19 2.19-2.28 3.6-4.19 5.19h-2c-0.264 0.589-0.529 1.18-0.801 1.78-1.24 2.3-2.55 3.82-4.39 5.67-0.616 0.619-1.23 1.24-1.87 1.88-0.642 0.634-1.28 1.27-1.95 1.92-0.642 0.65-1.28 1.3-1.95 1.97l-1.87 1.86c-0.563 0.561-1.13 1.12-1.71 1.7-1.48 1.22-1.48 1.22-3.48 1.22-0.227 0.552-0.454 1.1-0.688 1.67-1.7 3.02-3.86 5.14-6.31 7.58-0.887 0.892-1.77 1.78-2.69 2.7-2.31 2.05-2.31 2.05-4.31 2.05-0.258 0.583-0.516 1.17-0.781 1.77-1.32 2.41-2.77 4.05-4.72 5.98-0.608 0.614-1.22 1.23-1.84 1.86-1.66 1.39-1.66 1.39-3.66 1.39-0.259 0.602-0.518 1.2-0.785 1.83-1.33 2.37-2.47 3.39-4.66 4.97-0.714 0.525-1.43 1.05-2.16 1.59-0.784 0.569-1.57 1.14-2.37 1.72-36 26.9-78.2 59.9-85.2 107-1.74 12.7-2.41 25.5-2.66 38.3-0.0152 0.735-0.0303 1.47-0.0459 2.23-0.365 18.7 0.0421 37.5 0.743 56.2 0.466 12.4 0.722 24.9 0.792 37.3 0.00722 1.25 0.00722 1.25 0.0146 2.53 0.0235 4.25 0.0438 8.5 0.0629 12.7 0.139 29.8 0.671 59.6 1.45 89.4 0.754 28.8 1.33 57.7 1.66 86.5 0.0104 0.894 0.0208 1.79 0.0315 2.71 0.114 9.88 0.224 19.8 0.33 29.6 0.188 17.4 0.397 34.9 0.615 52.3 0.0105 0.843 0.0211 1.69 0.0319 2.55 0.312 24.9 0.731 49.8 1.26 74.6 0.0502 2.37 0.1 4.73 0.15 7.1 0.295 14 0.595 28 0.937 42 0.144 5.9 0.277 11.8 0.407 17.7 0.0547 2.38 0.114 4.75 0.177 7.13 0.938 35.1-6.36 63.5-30.6 89.7-15.2 15.7-34.2 24.2-55.2 29.2-0.987 0.264-0.987 0.264-1.99 0.534-8.54 2.04-17.2 1.75-25.9 1.73-1.83 3e-3 -3.66 0.00687-5.49 0.0115-5.03 0.0103-10.1 0.00813-15.1 0.00394-5.48-0.00237-11 0.0068-16.4 0.0145-9.6 0.0119-19.2 0.0162-28.8 0.0157-13.6-7.56e-4 -27.2 0.00856-40.8 0.0206-27.6 0.0245-55.3 0.0347-82.9 0.0395-2.98 5.24e-4 -5.95 0.00105-8.93 0.00158-0.738 1.29e-4 -1.48 2.58e-4 -2.24 3.91e-4 -16.4 0.00291-32.7 0.00907-49.1 0.0157-6.74 0.00272-13.5 0.00535-20.2 0.00799-0.745 2.91e-4 -1.49 5.82e-4 -2.26 8.82e-4 -42.7 0.0166-85.4 0.0285-128 0.0309-1.6 9.46e-5 -3.19 1.9e-4 -4.79 2.85e-4 -7.21 4.28e-4 -14.4 8.33e-4 -21.6 0.00124-3.22 1.82e-4 -6.43 3.66e-4 -9.65 5.52e-4 -1.61 9.2e-5 -3.22 1.82e-4 -4.83 2.71e-4 -50.9 0.00281-102 0.0245-153 0.0614-37.9 0.0275-75.9 0.0534-114 0.0599-0.764 1.33e-4 -1.53 2.67e-4 -2.32 4.04e-4 -16.8 0.00287-33.6 0.00429-50.3 0.00436-6 3.97e-5 -12 1.97e-4 -18 4.15e-4 -1.49 5.36e-5 -2.99 1.02e-4 -4.48 1.44e-4 -23.8 7.43e-4 -47.6 0.0164-71.3 0.0396-24 0.0233-47.9 0.0305-71.9 0.0158-14.9-0.00909-29.7-0.0049-44.6 0.022-9.49 0.0158-19 0.0133-28.5-0.00391-5.4-0.00927-10.8-0.0108-16.2 0.00997-41.2 0.148-41.2 0.148-57.8-5.64-1.51-0.493-3.02-0.985-4.53-1.48-26.2-8.59-47.2-29.1-59.7-53.3-6.97-14-11.1-29.9-11-45.5-0.00318-0.99-0.00635-1.98-0.00963-3-0.0082-3.31-0.00221-6.63 0.00372-9.94-3e-3 -2.41-0.00687-4.82-0.0115-7.24-0.00815-5.26-0.0101-10.5-0.00657-15.8 0.00523-7.87-0.00104-15.7-0.00951-23.6-0.0141-13.4-0.0187-26.8-0.018-40.3 6.22e-4 -13.6-0.00306-27.2-0.012-40.8-5.6e-4 -0.859-0.00112-1.72-0.0017-2.6-0.00229-3.5-0.00461-7-0.00696-10.5-0.0245-36.5-0.0347-73-0.0395-109-5.24e-4 -3.93-0.00105-7.86-0.00158-11.8-1.29e-4 -0.975-2.58e-4 -1.95-3.91e-4 -2.95-0.00291-21.6-0.00906-43.2-0.0157-64.8-0.00272-8.9-0.00535-17.8-0.00799-26.7-2.91e-4 -0.983-5.82e-4 -1.97-8.82e-4 -2.98-0.0166-56.3-0.0285-113-0.0309-169-9.46e-5 -2.11-1.9e-4 -4.22-2.85e-4 -6.32-4.28e-4 -9.52-8.33e-4 -19-0.00124-28.6-1.82e-4 -4.24-3.66e-4 -8.49-5.52e-4 -12.7-9.2e-5 -2.12-1.82e-4 -4.25-2.71e-4 -6.37-0.00281-67.2-0.0245-134-0.0614-202-0.0275-50.1-0.0534-100-0.0599-150-1.33e-4 -1.01-2.67e-4 -2.02-4.04e-4 -3.06-0.00287-22.1-0.00429-44.3-0.00436-66.4-3.97e-5 -7.92-1.97e-4 -15.8-4.15e-4 -23.8-5.36e-5 -1.97-1.02e-4 -3.94-1.44e-4 -5.91-7.43e-4 -31.4-0.0164-62.8-0.0396-94.2-0.0233-31.6-0.0305-63.2-0.0158-94.9 0.00203-4.37 0.00388-8.75 0.00563-13.1 5.25e-4 -1.29 5.25e-4 -1.29 0.00106-2.6 0.00508-13.6-0.0066-27.1-0.0253-40.7-0.0181-13.3-0.0182-26.7 5.62e-4 -40 0.0105-7.81 0.00737-15.6-0.0161-23.4-0.0159-5.81-0.00556-11.6 0.0147-17.4 0.00414-2.33-2.68e-6 -4.66-0.0137-6.99-0.16-29.1 7.39-55.6 26.6-78.1 0.731-0.865 1.46-1.73 2.21-2.62 4.04-4.68 4.04-4.68 5.79-6.38h2v-2c1.99-1.65 3.96-3.14 6.06-4.62 0.63-0.444 1.26-0.887 1.91-1.34 11.2-7.71 22.8-13.6 36-17 0.93-0.248 1.86-0.495 2.82-0.751 9.98-2.41 19.4-2.68 29.6-2.64zm315 63.4c-0.105 1.67-0.14 3.34-0.147 5.01-0.00716 1.08-0.0143 2.17-0.0217 3.29-0.00269 1.2-0.00538 2.4-0.00815 3.64-0.00657 1.26-0.0131 2.51-0.0199 3.81-0.0211 4.19-0.0314 8.37-0.0414 12.6-0.00405 1.44-0.00816 2.89-0.0124 4.33-0.0191 6.79-0.0333 13.6-0.0416 20.4-0.00974 7.81-0.036 15.6-0.0765 23.4-0.0303 6.05-0.045 12.1-0.0483 18.1-0.00234 3.61-0.0111 7.21-0.0365 10.8-0.0279 4.04-0.0234 8.08-0.0165 12.1-0.0128 1.18-0.0256 2.35-0.0388 3.57 0.0754 12.1 2.77 23.1 11.5 31.9 7.24 6.39 15.4 9.12 25 9.13 1.82 0.00576 1.82 0.00576 3.68 0.0116 1.35-7.8e-4 2.69-0.00166 4.04-0.00263 1.43 0.00258 2.87 0.0056 4.3 9e-3 3.94 0.00806 7.87 0.00986 11.8 0.0106 4.25 0.00185 8.49 0.0094 12.7 0.0161 9.29 0.0136 18.6 0.0196 27.9 0.024 5.8 0.00276 11.6 7e-3 17.4 0.0115 16.1 0.0122 32.1 0.0225 48.2 0.0259 1.03 2.2e-4 2.06 4.39e-4 3.11 6.65e-4 1.03 2.18e-4 2.06 4.37e-4 3.12 6.61e-4 2.09 4.43e-4 4.17 8.9e-4 6.26 0.00134 1.55 3.32e-4 1.55 3.32e-4 3.14 6.71e-4 16.8 0.00395 33.5 0.0214 50.3 0.0447 17.2 0.0237 34.4 0.0362 51.7 0.0373 9.67 9.16e-4 19.3 0.00666 29 0.0248 8.23 0.0154 16.5 0.0205 24.7 0.0123 4.2-0.0039 8.4-0.00299 12.6 0.0111 3.85 0.0128 7.7 0.0115 11.5-5.91e-4 1.39-0.00195 2.78 0.00111 4.16 0.00984 12 0.0705 22-1.45 31.3-9.38 8.35-8.47 11.4-18.1 11.5-29.9-0.0144-1.21-0.0288-2.43-0.0436-3.68 5.84e-4 -1.31 0.00117-2.62 0.00177-3.97 0.00114-3.55-0.0222-7.11-0.0503-10.7-0.0252-3.73-0.0274-7.45-0.0321-11.2-0.0124-7.04-0.0451-14.1-0.0854-21.1-0.0449-8.02-0.0667-16-0.0868-24.1-0.0417-16.5-0.112-33-0.201-49.5-51.8-0.0229-104-0.0405-155-0.0511-6.11-0.00125-12.2-0.00255-18.3-0.00387-1.22-2.62e-4 -2.43-5.25e-4 -3.69-7.95e-4 -19.7-0.00436-39.5-0.0122-59.2-0.0214-20.2-0.00934-40.5-0.0149-60.7-0.0169-12.5-0.00138-25-0.00573-37.5-0.0138-8.56-0.00527-17.1-0.00689-25.7-0.00558-4.94 6.44e-4 -9.89-3.77e-4 -14.8-0.0057-4.52-0.00483-9.04-0.00513-13.6-0.00169-1.64 4.26e-4 -3.28-8.71e-4 -4.93-0.00398-2.22-0.00396-4.43-0.00188-6.65 0.00184-1.85-5.7e-4 -1.85-5.7e-4 -3.75-0.00115-2.65-0.188-2.65-0.188-3.73 1.12zm470-1v63c6.27 0.0198 12.5 0.0396 19 0.0601 20.7 0.0669 41.4 0.144 62.2 0.227 12.6 0.0501 25.1 0.0965 37.7 0.134 11 0.033 21.9 0.0728 32.9 0.121 5.8 0.0252 11.6 0.047 17.4 0.0606 5.46 0.0129 10.9 0.035 16.4 0.064 2 0.00903 4 0.0148 6 0.0168 29.7 0.0363 29.7 0.0363 38.4 8.11 7.61 8.21 9.21 16.4 9.2 27.3 0.00284 0.921 0.00568 1.84 0.00861 2.79 0.00836 3.1 0.00962 6.2 0.0109 9.31 0.00456 2.24 0.00956 4.48 0.015 6.72 0.0136 6.17 0.021 12.3 0.0274 18.5 0.00717 5.96 0.019 11.9 0.0307 17.9 0.0238 12.2 0.043 24.4 0.0596 36.6 0.0164 12.1 0.0349 24.2 0.0561 36.3 0.00132 0.751 0.00264 1.5 0.00399 2.28 0.0067 3.81 0.0134 7.63 0.0202 11.4 0.0478 27 0.091 54 0.131 81.1 0.0393 26.3 0.0808 52.5 0.125 78.8 0.00136 0.809 0.00273 1.62 0.00413 2.45 0.0137 8.13 0.0274 16.3 0.0412 24.4 0.028 16.6 0.0558 33.1 0.0833 49.7 0.00127 0.761 0.00254 1.52 0.00384 2.31 0.0847 50.8 0.163 102 0.24 152 3.49-2.03 6.33-3.94 9-7v-2c0.99-0.33 1.98-0.66 3-1 1.61-1.58 1.61-1.58 3.18-3.55 3.78-4.45 7.81-8.59 11.9-12.7 0.69-0.694 1.38-1.39 2.09-2.1 3.46-3.45 6.95-6.62 10.8-9.65 1.03-1.11 2.04-2.26 3-3.44 4.86-5.7 10.2-10.9 15.6-16.2 0.47-0.464 0.939-0.929 1.42-1.41 0.517-0.446 1.03-0.892 1.57-1.35 2.5-2.88 1.84-6.67 1.81-10.3 0.00609-1.35 0.00609-1.35 0.0123-2.73 0.01-3.04-0.00152-6.08-0.0128-9.12 0.00274-2.19 0.00679-4.38 0.012-6.57 0.0106-6.04 0.00243-12.1-0.00875-18.1-0.00881-6.51-4.07e-4 -13 0.00586-19.5 0.00953-12 0.00431-24-0.00716-36.1-0.0105-11.1-0.0151-22.2-0.0137-33.3 8.4e-5 -0.736 1.68e-4 -1.47 2.55e-4 -2.23 3.52e-4 -2.99 7.36e-4 -5.98 0.00117-8.96 0.00397-28.1-0.00877-56.1-0.0295-84.2-0.0184-24.9-0.0242-49.9-0.0187-74.8 3.46e-4 -1.6 6.93e-4 -3.2 0.00104-4.8 1.71e-4 -0.791 3.42e-4 -1.58 5.18e-4 -2.4 8.54e-4 -3.98 0.00168-7.96 0.00247-11.9 2.36e-4 -1.18 2.36e-4 -1.18 4.76e-4 -2.38 0.00399-20.8-0.00149-41.6-0.00999-62.5-9.07e-4 -2.24-0.00181-4.48-0.00272-6.72-6.01e-4 -1.49-0.00121-2.97-0.00183-4.46-0.00422-10.4-0.0048-20.7-0.00289-31.1 0.00244-13.4-0.00163-26.7-0.0172-40.1-0.00725-6.44-0.0113-12.9-0.00676-19.3 0.00407-5.9-0.00107-11.8-0.0136-17.7-0.00293-2.14-0.00249-4.27 0.00164-6.41 0.0051-2.9-0.00207-5.8-0.0123-8.7 0.0044-0.832 0.00879-1.66 0.0133-2.52-0.0893-13.2-5.16-24.3-14.3-33.8-8.11-6.94-19-11.1-29.7-11.1-0.93-0.00199-1.86-0.00398-2.82-0.00603-1.01 0.00291-2.03 0.00583-3.07 0.00883-1.62-0.00128-1.62-0.00128-3.28-0.00259-3.63-0.00165-7.27 0.00386-10.9 0.00932-2.6 2.82e-4 -5.2 1.24e-4 -7.81-4.43e-4 -5.6-5.24e-4 -11.2 0.00261-16.8 0.00824-8.1 0.00813-16.2 0.0107-24.3 0.012-13.1 0.00219-26.3 0.00884-39.4 0.0183-12.8 0.00918-25.5 0.0163-38.3 0.0205-1.18 3.94e-4 -1.18 3.94e-4 -2.39 7.96e-4 -3.95 0.00131-7.9 0.00257-11.8 0.00381-32.8 0.0104-65.5 0.0288-98.3 0.0503zm-824 15c-11.9 14.3-11.1 30.7-11 48.3-0.00313 2.39-0.00758 4.79-0.0132 7.18-0.00925 5.21-0.00921 10.4-9.49e-4 15.6 0.0123 7.8 0.00724 15.6-0.00115 23.4-0.0138 13.3-0.0134 26.6-0.00516 39.9 0.00826 13.5 0.00999 26.9 0.00379 40.4-3.88e-4 0.851-7.75e-4 1.7-0.00117 2.58-0.0016 3.47-0.00325 6.93-0.00495 10.4-0.0159 32.3-0.0169 64.6-0.00856 96.9 2.48e-4 0.956 4.97e-4 1.91 7.53e-4 2.9 2.49e-4 0.958 4.98e-4 1.92 7.54e-4 2.9 0.00757 29.2 0.00952 58.4 0.00593 87.5-2.32e-4 1.95-4.64e-4 3.91-6.94e-4 5.86-9.31e-4 7.85-0.00189 15.7-0.00288 23.6-0.00275 21.9-0.00446 43.9-0.00536 65.8-4.09e-5 0.999-8.19e-5 2-1.24e-4 3.03-0.00123 31.8 0.00215 63.7 0.00867 95.5 2.11e-4 1.03 4.21e-4 2.07 6.39e-4 3.13 0.00343 16.8 0.00709 33.6 0.0108 50.3 0.0146 66.5 0.0139 133-6.92e-4 200-0.00366 16.8-0.0073 33.5-0.0107 50.3-2.11e-4 1.03-4.23e-4 2.06-6.4e-4 3.13-0.00647 31.8-0.00921 63.6-0.00791 95.4 4.08e-5 0.999 8.15e-5 2 1.23e-4 3.03 9.37e-4 21.9 0.00284 43.8 0.00561 65.8 9.87e-4 7.84 0.00193 15.7 0.00285 23.5 2.32e-4 1.95 4.68e-4 3.9 7.09e-4 5.85 0.00358 29.2 5.3e-4 58.3-0.00705 87.5-2.48e-4 0.956-4.97e-4 1.91-7.53e-4 2.9-2.48e-4 0.955-4.96e-4 1.91-7.52e-4 2.89-0.00827 32.2-0.00524 64.4 0.0106 96.6 0.00166 3.46 0.00327 6.91 0.00484 10.4 3.91e-4 0.848 7.81e-4 1.7 0.00118 2.57 0.00592 13.4 0.00179 26.9-0.00649 40.3-0.00793 13.2-0.00516 26.4 0.00904 39.6 0.00801 7.75 0.00783 15.5-0.00444 23.2-0.00819 5.75-7.72e-4 11.5 0.0128 17.2 0.00303 2.31 0.00101 4.63-0.00662 6.94-0.0539 17.6 0.582 32.3 12.9 46 13.1 12.4 29.2 13.1 46.2 13.1 1.81 0.0027 3.62 0.00626 5.42 0.0106 4.97 0.00945 9.95 0.00646 14.9 0.00144 5.41-0.00327 10.8 0.00502 16.2 0.0118 9.48 0.0103 19 0.0131 28.4 0.0111 14.1-0.00305 28.2 0.00527 42.3 0.0157 26.6 0.0194 53.3 0.025 79.9 0.0261 2.94 1.29e-4 5.88 2.65e-4 8.82 4.07e-4 0.729 3.4e-5 1.46 6.8e-5 2.21 1.03e-4 16.2 8.17e-4 32.3 0.0052 48.5 0.0102 6.66 0.00206 13.3 0.00404 20 0.00603 0.735 2.21e-4 1.47 4.42e-4 2.23 6.7e-4 42.1 0.0126 84.3 0.0209 126 0.02 1.58-3.16e-5 3.15-6.3e-5 4.73-9.44e-5 7.12-1.47e-4 14.2-3.23e-4 21.4-5.08e-4 3.17-8.22e-5 6.35-1.63e-4 9.52-2.43e-4 1.59-4.08e-5 3.18-8.28e-5 4.77-1.26e-4 50.2-0.00136 100 0.0133 151 0.0411 12.7 7e-3 25.3 0.0139 38 0.0205 0.779 4.06e-4 1.56 8.11e-4 2.36 0.00123 24 0.0124 48.1 0.02 72.1 0.0225 1.13 1.2e-4 1.13 1.2e-4 2.29 2.42e-4 16.6 0.00171 33.1 0.00223 49.7 0.00166 5.93-1.93e-4 11.9-2.97e-4 17.8-3.57e-4 1.47-1.58e-5 2.95-3.62e-5 4.42-6.12e-5 23.5-3.52e-4 47 0.011 70.5 0.0283 24.3 0.0178 48.6 0.0209 72.9 0.00738 14-0.0074 28-0.00371 42 0.0159 9.36 0.012 18.7 0.00943 28.1-0.00494 5.33-0.00778 10.7-0.00928 16 0.00691 4.86 0.0146 9.72 0.0106 14.6-0.00785 1.74-0.00342 3.48-2.45e-4 5.22 0.0106 15.2 0.0885 29.9-1.09 41.9-11.5 0.908-0.784 1.82-1.57 2.75-2.38 12.3-14.4 12.8-28.8 12.7-46.9 0.00175-2.26 0.00525-4.53 0.0104-6.79 0.00892-6.2-0.00702-12.4-0.0271-18.6-0.0155-6-0.0122-12-0.00927-18 0.00524-12.3-0.00806-24.5-0.0321-36.8-0.0237-12.1-0.0391-24.3-0.0434-36.4-2.75e-4 -0.756-5.5e-4 -1.51-8.33e-4 -2.29-0.00135-3.84-0.00256-7.68-0.00371-11.5-0.00839-27.2-0.0353-54.3-0.0732-81.5-0.0368-26.4-0.0651-52.8-0.082-79.2-5.26e-4 -0.814-0.00105-1.63-0.00159-2.47-0.00527-8.18-0.0104-16.4-0.0154-24.5-0.0101-16.7-0.0214-33.3-0.0334-50-5.49e-4 -0.766-0.0011-1.53-0.00166-2.32-0.0368-51.1-0.1-102-0.168-153-0.542 0.257-1.08 0.514-1.64 0.779-2.49 1.18-4.97 2.36-7.46 3.54-0.853 0.404-1.71 0.809-2.58 1.23-6.4 3.03-12.8 6.02-19.3 8.96-0.891 0.409-1.78 0.817-2.7 1.24-6.58 3.01-13.2 5.98-19.8 8.95-0.924 0.416-1.85 0.832-2.8 1.26-2.26 1.02-4.53 2.04-6.79 3.05-0.00136 0.979-0.00271 1.96-0.00411 2.97-0.0805 58-0.172 116-0.276 174-0.0125 6.96-0.025 13.9-0.0373 20.9-0.00123 0.693-0.00247 1.39-0.00374 2.1-0.0399 22.4-0.0734 44.9-0.104 67.3-0.0319 23.7-0.0711 47.4-0.118 71.2-0.0279 14.2-0.0499 28.4-0.0645 42.6-0.0105 9.74-0.0283 19.5-0.0519 29.2-0.0134 5.62-0.0235 11.2-0.025 16.9-0.00146 5.15-0.012 10.3-0.0299 15.4-0.00485 1.86-0.00634 3.73-0.00414 5.59 0.0025 2.53-0.00724 5.06-0.02 7.6 0.00365 0.723 0.0073 1.45 0.0111 2.19-0.0791 9.11-2.63 16.9-8.27 24-7.43 6.56-15.2 8.28-24.8 8.41-0.876 0.0194-1.75 0.0387-2.65 0.0587-2.96 0.0613-5.92 0.107-8.88 0.152-1.58 0.0279-1.58 0.0279-3.19 0.0563-32 0.562-64 0.42-96 0.345-4.29-0.00972-8.58-0.0182-12.9-0.0269-14.3-0.0291-28.6-0.0606-42.9-0.1-0.903-0.0025-1.81-0.00499-2.74-0.00757-0.905-0.0025-1.81-5e-3 -2.74-0.00758-1.83-0.00506-3.66-0.0101-5.5-0.0152-0.909-0.00251-1.82-0.00501-2.75-0.0076-14.8-0.0405-29.7-0.0634-44.5-0.0794-15.3-0.0167-30.7-0.0484-46-0.0949-8.57-0.0256-17.1-0.0449-25.7-0.0474-7.26-0.00218-14.5-0.0179-21.8-0.0513-3.7-0.0166-7.4-0.0269-11.1-0.0197-4.01 0.0076-8.02-0.0157-12-0.0419-1.16 0.00708-2.32 0.0142-3.51 0.0214-8.1-0.0901-15.6-1.22-21.8-6.8-0.495-0.578-0.99-1.15-1.5-1.75h-2c-0.248-0.66-0.495-1.32-0.75-2-1.3-3.11-2.78-6.06-4.35-9.04-3.24-7.05-2.31-14.4 0.0664-21.5 3.23-7.67 8.73-12.6 16-16.5 4.08-1.55 7.46-2.25 11.8-2.26 1.14-0.00747 2.29-0.0149 3.47-0.0226 1.25 0.00194 2.49 0.00387 3.78 0.00587 1.34-5e-3 2.68-0.0109 4.03-0.0175 3.69-0.0158 7.38-0.0192 11.1-0.0206 4.04-0.00378 8.08-0.0191 12.1-0.033 7.84-0.0252 15.7-0.0402 23.5-0.0516 9.07-0.0136 18.1-0.04 27.2-0.0663 24-0.0633 47.9-0.109 71.9-0.157l162-0.375v-402c-7.66 2.95-15.1 5.84-22.6 9.26-0.846 0.385-1.69 0.77-2.57 1.17-1.79 0.813-3.57 1.63-5.36 2.44-4.67 2.13-9.35 4.25-14 6.38-0.915 0.416-1.83 0.831-2.77 1.26-9.98 4.53-20 9.02-30 13.3-2.7 1.17-5.39 2.38-8.08 3.59-11.8 5.2-22.3 8.37-35.1 4-7.69-3.64-12.5-9.58-15.5-17.4-4.49-14.8 3.38-29.1 9.44-42.2 1.55-3.35 3.07-6.71 4.6-10.1 0.321-0.704 0.643-1.41 0.974-2.13 3.74-8.2 7.39-16.4 11-24.7 1.35-3.05 2.7-6.09 4.05-9.14 0.329-0.741 0.658-1.48 0.997-2.25 3.18-7.15 6.37-14.3 9.57-21.4 0.528-1.18 1.06-2.36 1.6-3.57 2.59-5.77 5.18-11.5 7.77-17.3 5.91-13.1 11.8-26.3 17.5-39.5 1.15-2.61 2.29-5.23 3.44-7.84 0.38-0.865 0.761-1.73 1.15-2.62 0.772-1.76 1.54-3.51 2.32-5.27 2.34-5.32 4.67-10.7 6.98-16 1.51-3.46 3.02-6.91 4.55-10.4 0.711-1.62 1.42-3.25 2.12-4.87 0.978-2.27 1.97-4.52 2.97-6.78 0.273-0.644 0.547-1.29 0.828-1.95 4.41-9.83 10.5-16.8 18.9-23.3 14.6-11.6 26.3-22.8 28.5-42 1.02-12.2 0.756-24.4 0.438-36.7-0.146-6.25-0.1-12.5-0.0765-18.8 0.043-12.8-0.0655-25.5-0.265-38.3-0.196-12.6-0.322-25.2-0.358-37.8-0.00227-0.788-0.00454-1.58-0.00687-2.39-0.0112-4-0.0211-8.01-0.0306-12-0.0691-28.3-0.291-56.5-0.604-84.7-0.304-27.4-0.537-54.8-0.677-82.3-0.00434-0.847-0.00868-1.69-0.0132-2.57-0.0435-8.51-0.0856-17-0.127-25.5-0.0837-17.3-0.177-34.7-0.276-52-0.00453-0.797-0.00906-1.59-0.0137-2.41-0.139-24.4-0.318-48.8-0.537-73.2-0.00619-0.691-0.0124-1.38-0.0188-2.1-0.251-28-0.545-56-0.828-84h-178c-1.48 11.9-1.48 11.9-3 24-4.19 16.6-11.3 31.3-23 44-0.758 0.849-1.52 1.7-2.3 2.57-16.7 17.8-40.7 26.9-64.7 28.4-4.8 0.136-9.59 0.139-14.4 0.134-1.43 0.00187-2.86 0.00417-4.29 0.00687-3.9 0.00608-7.8 0.00599-11.7 0.00481-4.22-2.05e-4 -8.44 0.00532-12.7 0.0101-8.25 0.00829-16.5 0.0111-24.8 0.0116-6.71 4.76e-4 -13.4 0.00254-20.1 0.0057-19.1 0.0088-38.1 0.0134-57.2 0.0127-1.03-4e-5 -2.05-7.99e-5 -3.11-1.21e-4 -1.54-6.13e-5 -1.54-6.13e-5 -3.11-1.24e-4 -16.6-4.06e-4 -33.3 0.00916-49.9 0.0233-17.1 0.0144-34.2 0.0213-51.3 0.0204-9.6-3.31e-4 -19.2 0.00238-28.8 0.0132-8.17 0.00913-16.3 0.0113-24.5 0.00449-4.16-0.00325-8.33-0.00337-12.5 0.00535-3.82 0.00793-7.65 0.00637-11.5-0.00228-2.01-0.00223-4.03 0.00524-6.04 0.0132-28.2-0.105-52.7-8.41-73.6-27.7-19.9-20.4-26-43.7-29.5-71.6h-178v1226c107 0.33 214 0.66 324 1 10.9 3.26 10.9 3.26 15 7h2c0.416 0.851 0.416 0.851 0.84 1.72 1.57 3.09 3.31 6.07 5.04 9.06 2.98 5.89 3.01 13 1.66 19.4-2.68 7.86-7.12 14.6-14.3 18.8-5.4 2.36-10.5 3.24-16.4 3.38-0.706 0.019-1.41 0.0381-2.14 0.0577-2.41 0.0606-4.82 0.106-7.23 0.15-0.868 0.0185-1.74 0.0369-2.63 0.056-28.2 0.595-56.4 0.474-84.6 0.463-5.8-0.00231-11.6-0.00256-17.4-0.00149-0.836 1.53e-4 -1.67 3.06e-4 -2.53 4.64e-4 -1.7 3.2e-4 -3.4 6.44e-4 -5.1 9.73e-4 -15.8 0.00283-31.6-3.87e-4 -47.4-0.0058-13.5-0.00449-27-0.00367-40.5 9.19e-4 -15.8 0.00536-31.6 0.00745-47.4 0.00439-1.69-3.18e-4 -3.37-6.33e-4 -5.06-9.43e-4 -0.829-1.54e-4 -1.66-3.09e-4 -2.51-4.68e-4 -5.8-8.58e-4 -11.6 5.82e-4 -17.4 0.00295-7.06 0.00282-14.1 0.00202-21.2-0.00328-3.59-0.00261-7.18-0.00369-10.8-3.51e-4 -46.3 0.0391-46.3 0.0391-54.6-7.38-0.495-0.578-0.99-1.15-1.5-1.75h-2c-1.51-2.93-2.83-5.89-4.06-8.94-0.512-1.25-0.512-1.25-1.04-2.53-1.96-5.5-2.05-10.7-2.03-16.4-0.00178-0.904-0.00355-1.81-0.00538-2.74-0.00476-3.05-0.00236-6.1-4.11e-5 -9.15-0.00195-2.21-0.00434-4.42-0.00713-6.63-0.00642-6.11-0.00656-12.2-0.00572-18.3-1.52e-4 -5.95-0.00498-11.9-0.00966-17.8-0.00952-12.3-0.0142-24.6-0.0163-37-0.00213-12.5-0.00639-25-0.0132-37.5-4.31e-4 -0.788-8.61e-4 -1.58-0.0013-2.39-0.00176-3.21-0.00353-6.42-0.00531-9.63-0.0216-38.9-0.0325-77.9-0.0415-117-0.00293-12.6-0.0063-25.2-0.00997-37.9-2.58e-4 -0.89-5.17e-4 -1.78-7.83e-4 -2.7-0.00105-3.6-0.00209-7.2-0.00315-10.8-0.018-61.6-0.0333-123-0.0408-185-5.84e-4 -4.84-0.00118-9.68-0.00178-14.5-1.18e-4 -0.96-2.36e-4 -1.92-3.58e-4 -2.91-0.0012-9.73-0.00241-19.5-0.00363-29.2-2.45e-4 -1.95-4.89e-4 -3.9-7.32e-4 -5.85-0.00779-62.7-0.0302-125-0.0627-188-0.0233-45-0.0449-90-0.052-135-1.47e-4 -0.925-2.94e-4 -1.85-4.46e-4 -2.8-0.00318-20.3-0.00524-40.6-0.00623-60.9-4.15e-4 -8.17-9.7e-4 -16.3-0.00156-24.5-6.07e-5 -0.895-1.21e-4 -1.79-1.84e-4 -2.71-0.00202-28.8-0.0163-57.7-0.0368-86.5-0.0206-29-0.0285-58.1-0.0189-87.1 0.00132-4.01 0.0025-8.02 0.00359-12 2.2e-4 -0.786 4.4e-4 -1.57 6.66e-4 -2.38 0.00312-12.5-0.00722-24.9-0.0231-37.4-0.0154-12.2-0.0165-24.5-0.00245-36.7 0.00713-6.55 0.00745-13.1-0.00956-19.7-0.0153-5.96-0.0123-11.9 0.00541-17.9 0.00316-2.14-4.24e-4 -4.29-0.0115-6.43-0.0626-13-0.023-25 8.54-35.6 8.25-7.5 18-8.93 28.7-8.95 0.867-0.00494 1.73-0.00988 2.63-0.015 2.9-0.0153 5.79-0.0237 8.69-0.0321 2.08-0.00958 4.16-0.0196 6.24-0.03 5.64-0.027 11.3-0.048 16.9-0.068 5.9-0.0219 11.8-0.0493 17.7-0.0761 11.2-0.0499 22.3-0.0948 33.5-0.138 12.7-0.0494 25.4-0.104 38.1-0.16 26.2-0.114 52.3-0.22 78.5-0.323v-63c-33.5-0.0883-67.1-0.162-101-0.204-3.96-5e-3 -7.93-0.0102-11.9-0.0155-0.789-0.00105-1.58-0.0021-2.39-0.00318-12.8-0.0174-25.5-0.0489-38.3-0.0857-13.1-0.0375-26.2-0.0596-39.3-0.0677-8.08-0.00548-16.2-0.0227-24.2-0.0553-6.21-0.0237-12.4-0.0261-18.6-0.0208-2.54-0.0011-5.08-0.00901-7.61-0.0244-19.3-0.111-35.4 0.65-49.4 15.5zm1369 400c-1.01 1.03-2.02 2.06-3.03 3.08-2.44 2.48-4.86 4.98-7.28 7.48 0.928 1.11 1.86 2.22 2.79 3.32 0.778 0.926 0.778 0.926 1.57 1.87 1.56 1.72 3.15 3.16 4.95 4.62 2.69 2.19 2.69 2.19 3.69 4.19h2c0.256 0.581 0.512 1.16 0.776 1.76 1.35 2.46 2.84 4.11 4.82 6.09 0.734 0.74 1.47 1.48 2.22 2.24 0.793 0.789 1.59 1.58 2.4 2.39 0.814 0.816 1.63 1.63 2.47 2.47 1.72 1.72 3.44 3.44 5.16 5.15 2.65 2.64 5.28 5.28 7.92 7.93 1.67 1.67 3.34 3.34 5.01 5 0.793 0.797 1.59 1.59 2.4 2.41 0.734 0.728 1.47 1.46 2.22 2.21 0.97 0.968 0.97 0.968 1.96 1.96 1.53 1.59 1.53 1.59 3.63 1.38 0.33 0.99 0.66 1.98 1 3h2c0.33 0.99 0.66 1.98 1 3 1.66 1.72 1.66 1.72 3.69 3.38 0.996 0.847 0.996 0.847 2.01 1.71 0.759 0.632 1.52 1.26 2.3 1.91 1.09 0.909 2.18 1.82 3.27 2.73 0.901 0.75 1.8 1.5 2.73 2.27 22.8-21.1 22.8-21.1 33-50l0.309-2.32c0.832-13.3-5.1-27.2-13.4-37.2-9.8-10.4-21.9-16.4-36.3-16.9-20.4-0.21-33.5 8.61-47.3 22.9zm-57.5 57.3c-1.26 1.27-1.26 1.27-2.55 2.56-0.472 0.469-0.944 0.938-1.43 1.42-1.6 1.59-3.18 3.19-4.77 4.79-1.15 1.15-2.3 2.29-3.44 3.44-3.17 3.16-6.32 6.33-9.48 9.5-3.4 3.41-6.81 6.82-10.2 10.2-5.91 5.91-11.8 11.8-17.7 17.7-8.53 8.56-17.1 17.1-25.6 25.7-13.9 13.9-27.7 27.7-41.5 41.6-13.4 13.5-26.9 27-40.3 40.4-0.828 0.83-1.66 1.66-2.51 2.51-9.04 9.05-18.1 18.1-27.1 27.2-0.794 0.795-1.59 1.59-2.41 2.41-3.17 3.18-6.35 6.35-9.52 9.53-9.3 9.31-18.6 18.6-27.9 28-5.83 5.84-11.7 11.7-17.5 17.5-3.37 3.37-6.74 6.75-10.1 10.1-3.08 3.09-6.16 6.17-9.24 9.26-1.12 1.12-2.24 2.24-3.35 3.36-1.51 1.52-3.02 3.03-4.54 4.54-1.26 1.27-1.26 1.27-2.55 2.56-2.03 1.91-2.03 1.91-4.03 2.91 0.582 3.24 1.49 4.87 3.82 7.18 0.898 0.904 0.898 0.904 1.81 1.83 0.66 0.65 1.32 1.3 2 1.97 0.693 0.693 1.39 1.39 2.1 2.1 2.29 2.29 4.6 4.57 6.9 6.85 1.59 1.59 3.18 3.17 4.77 4.76 4.19 4.18 8.38 8.34 12.6 12.5 4.28 4.25 8.56 8.51 12.8 12.8 8.39 8.36 16.8 16.7 25.2 25 6.48-5.34 12.4-11.2 18.3-17.2 1.14-1.14 2.28-2.28 3.42-3.42 3.12-3.12 6.24-6.24 9.36-9.37 3.37-3.37 6.74-6.74 10.1-10.1 5.83-5.83 11.7-11.7 17.5-17.5 8.43-8.44 16.9-16.9 25.3-25.3 13.7-13.7 27.4-27.4 41.1-41.1 13.3-13.3 26.6-26.6 39.9-39.9 0.82-0.82 1.64-1.64 2.48-2.48 4.11-4.11 8.22-8.23 12.3-12.3 34.1-34.1 68.2-68.2 102-102-1.36-2.81-2.63-4.88-4.84-7.1-0.579-0.586-1.16-1.17-1.75-1.78-0.633-0.631-1.27-1.26-1.92-1.91-0.668-0.674-1.34-1.35-2.03-2.04-2.21-2.22-4.43-4.44-6.64-6.66-1.54-1.54-3.07-3.08-4.61-4.62-3.22-3.23-6.44-6.45-9.67-9.67-4.14-4.14-8.27-8.28-12.4-12.4-3.17-3.18-6.35-6.36-9.52-9.54-1.53-1.53-3.05-3.06-4.57-4.59-2.12-2.14-4.26-4.26-6.39-6.39-0.947-0.958-0.947-0.958-1.91-1.94-4.49-4.81-4.49-4.81-9.88-2.55zm-313 334c-4.38 8.39-8.32 16.9-11.9 25.6-2.24 5.46-4.69 10.8-7.21 16.2-3.6 7.67-7.07 15.4-10.5 23.1-1.13 2.53-2.27 5.06-3.41 7.59-0.733 1.64-1.47 3.27-2.2 4.91-0.502 1.11-0.502 1.11-1.01 2.25-2.1 4.71-3.98 9.47-5.75 14.3 3.59-0.61 6.66-1.58 9.99-3.04 0.954-0.416 1.91-0.833 2.89-1.26 0.987-0.437 1.97-0.874 2.99-1.32 0.949-0.414 1.9-0.828 2.88-1.25 5.44-2.39 10.8-4.86 16.2-7.39 10.4-4.91 21-9.45 31.6-14.1 13.9-5.99 13.9-5.99 27.4-12.7 0.32-3.11 0.32-3.11-1.88-5.26-1.32-1.32-1.32-1.32-2.67-2.67-0.484-0.488-0.969-0.976-1.47-1.48-1.61-1.61-3.22-3.22-4.84-4.82-1.12-1.12-2.23-2.23-3.35-3.35-2.34-2.34-4.69-4.68-7.04-7.01-3.02-2.99-6.02-6-9.03-9.01-2.3-2.31-4.61-4.61-6.92-6.91-1.11-1.11-2.22-2.21-3.33-3.32-1.55-1.55-3.1-3.09-4.65-4.63-1.33-1.32-1.33-1.32-2.68-2.66-1.91-2.1-1.91-2.1-4.14-1.88z" fill="#000002"/>
<path transform="translate(312 375)" d="m0 0c0.828-0.00312 1.66-0.00624 2.51-0.00945 2.75-0.00793 5.51-0.00168 8.26 0.00463 1.98-0.00271 3.97-0.00627 5.95-0.0106 5.37-0.0091 10.7-0.00559 16.1 7.58e-4 5.63 0.00507 11.3 3.65e-4 16.9-0.00277 9.46-0.00364 18.9 0.00115 28.4 0.0107 10.9 0.0109 21.8 0.00737 32.8-0.00365 9.39-0.00909 18.8-0.0103 28.2-0.00512 5.6 0.00311 11.2 0.00356 16.8-0.00307 5.27-0.0058 10.5-0.00173 15.8 0.00979 1.93 0.00263 3.86 0.00191 5.79-0.00253 29.1-0.0607 29.1-0.0607 38.1 8.28 7.87 8.41 9.99 16 9.97 27.4 0.00227 0.848 0.00453 1.7 0.00687 2.57 0.00633 2.84 0.00551 5.68 0.00469 8.52 0.00299 2.04 0.00639 4.07 0.0102 6.11 0.00884 5.53 0.0112 11.1 0.0118 16.6 9.5e-4 4.62 0.00463 9.24 0.00817 13.9 0.00814 10.9 0.0106 21.8 0.00987 32.7-6.01e-4 11.2 0.00995 22.5 0.0257 33.7 0.0131 9.65 0.0184 19.3 0.0178 29-2.55e-4 5.76 0.00259 11.5 0.0132 17.3 0.00969 5.42 0.00976 10.8 0.00248 16.3-0.00105 1.99 0.00131 3.98 0.00736 5.96 0.00773 2.72 0.00307 5.44-0.00463 8.16 0.00514 0.783 0.0103 1.57 0.0156 2.37-0.0627 10.1-2.99 17.9-9.97 25.3-8.15 7.42-17.3 8.36-27.9 8.34-0.84 0.00297-1.68 0.00594-2.55 9e-3 -2.8 0.00864-5.6 0.0102-8.41 0.0117-2.01 0.00463-4.03 0.00966-6.04 0.015-5.46 0.0131-10.9 0.0196-16.4 0.024-3.42 0.00294-6.83 0.00704-10.2 0.0115-10.7 0.0137-21.4 0.0233-32.1 0.0272-12.3 0.00448-24.7 0.022-37 0.051-9.54 0.0216-19.1 0.0317-28.6 0.033-5.69 0.00105-11.4 0.00693-17.1 0.0248-5.36 0.0165-10.7 0.0186-16.1 0.00986-1.96-7.69e-4 -3.92 0.00355-5.88 0.0135-25.1 0.119-25.1 0.119-35-9.37-7.89-8.79-9.15-18.1-9.15-29.6-0.00368-0.835-0.00735-1.67-0.0111-2.53-0.011-2.79-0.0149-5.57-0.0187-8.36-0.00627-2-0.0129-4.01-0.0199-6.01-0.021-6.56-0.0314-13.1-0.0414-19.7-0.00405-2.26-0.00817-4.53-0.0124-6.79-0.019-10.6-0.0333-21.3-0.0416-31.9-0.00977-12.3-0.0361-24.5-0.0765-36.8-0.0302-9.49-0.045-19-0.0483-28.5-0.00235-5.66-0.0113-11.3-0.0365-17-0.0233-5.33-0.0275-10.7-0.0172-16 4.94e-4 -1.95-0.00579-3.9-0.0196-5.85-0.0843-12.7 0.288-24 8.66-34.3 7.97-7.79 17.6-10.1 28.4-10zm25.4 62.3v138h138v-138h-138z" fill="#000002"/>
<path transform="translate(311 719)" d="m0 0c0.841-0.00312 1.68-0.00624 2.55-0.00945 2.8-0.00793 5.6-0.00167 8.4 0.00463 2.01-0.00271 4.03-0.00627 6.04-0.0106 5.46-0.0091 10.9-0.00559 16.4 7.58e-4 5.72 0.00507 11.4 3.65e-4 17.2-0.00277 9.61-0.00364 19.2 0.00115 28.8 0.0107 11.1 0.0109 22.2 0.00736 33.3-0.00365 9.54-0.00909 19.1-0.0104 28.6-0.00512 5.69 0.00311 11.4 0.00355 17.1-0.00307 5.35-0.0058 10.7-0.00174 16.1 0.00979 1.96 0.00263 3.92 0.0019 5.88-0.00253 27.5-0.0564 27.5-0.0564 37 9.16 7.56 8.27 9.21 15.6 9.19 26.6 0.00227 0.844 0.00453 1.69 0.00687 2.56 0.00632 2.82 0.00551 5.64 0.00469 8.46 0.00299 2.03 0.0064 4.05 0.0102 6.08 0.00883 5.5 0.0112 11 0.0118 16.5 7.11e-4 3.44 0.00285 6.87 0.0055 10.3 0.00925 12 0.0133 24 0.0125 36-6.01e-4 11.2 0.00995 22.3 0.0257 33.5 0.0131 9.6 0.0184 19.2 0.0178 28.8-2.55e-4 5.73 0.00258 11.5 0.0132 17.2 0.00969 5.39 0.00975 10.8 0.00248 16.2-0.00104 1.97 0.00131 3.95 0.00736 5.92 0.00775 2.7 0.00306 5.41-0.00463 8.11 0.00514 0.775 0.0103 1.55 0.0156 2.35-0.0646 10.3-2.49 18.6-9.78 26.1-12.6 11-30.9 8.58-46.5 8.57-1.88 3e-3 -3.77 0.0064-5.65 0.0102-5.08 0.00877-10.2 0.0112-15.2 0.0118-3.18 7.14e-4 -6.36 0.00285-9.54 0.0055-11.1 0.00923-22.2 0.0133-33.3 0.0125-10.3-6.01e-4 -20.7 0.00997-31 0.0257-8.9 0.0131-17.8 0.0184-26.7 0.0178-5.3-2.54e-4 -10.6 0.00255-15.9 0.0132-4.99 0.00972-9.97 0.00973-15 0.00248-1.82-0.00104-3.64 0.00129-5.47 0.00736-27.9 0.0868-27.9 0.0868-38.2-8.25-8.42-8.78-10.2-18.8-10.1-30.6-0.00297-0.836-0.00594-1.67-9e-3 -2.53-0.00864-2.79-0.0102-5.58-0.0117-8.36-0.00463-2-0.00966-4.01-0.015-6.01-0.0131-5.44-0.0196-10.9-0.024-16.3-0.00294-3.4-0.00704-6.8-0.0115-10.2-0.0137-10.6-0.0233-21.3-0.0272-31.9-0.00448-12.3-0.022-24.5-0.051-36.8-0.0216-9.49-0.0317-19-0.033-28.5-0.00105-5.67-0.00693-11.3-0.0248-17-0.0165-5.33-0.0186-10.7-0.00986-16 7.69e-4 -1.95-0.00355-3.9-0.0135-5.86-0.0664-13.9 0.0389-25.5 10.4-36 7.82-6.56 15.7-8.31 25.7-8.25zm26.3 62.3v138h138v-138h-138z" fill="#000002"/>
<path transform="translate(309 1063)" d="m0 0c0.861-0.00468 1.72-0.00936 2.61-0.0142 2.87-0.0119 5.74-0.00251 8.6 0.00695 2.06-0.00407 4.13-0.00941 6.19-0.0159 5.59-0.0137 11.2-0.00838 16.8 0.00114 5.86 0.00761 11.7 5.48e-4 17.6-0.00416 9.84-0.00546 19.7 0.00173 29.5 0.016 11.4 0.0163 22.7 0.011 34.1-0.00548 9.77-0.0136 19.5-0.0155 29.3-0.00768 5.83 0.00467 11.7 0.00533 17.5-0.00461 5.48-0.00869 11-0.00261 16.5 0.0147 2.01 0.00395 4.02 0.00285 6.02-0.00379 25.8-0.0774 25.8-0.0774 34.4 8.4 6.64 8.05 9.47 16.6 9.37 26.9 0.00397 0.851 0.00795 1.7 0.012 2.58 0.00956 2.83-0.00215 5.66-0.014 8.48 0.00243 2.04 0.00615 4.08 0.0111 6.11 0.00938 5.52 6.6e-6 11-0.0133 16.5-0.0113 5.78-0.0072 11.6-0.00525 17.3 8.82e-4 9.7-0.0102 19.4-0.0286 29.1-0.0212 11.2-0.0247 22.4-0.0184 33.6 0.0057 10.8 4.23e-5 21.6-0.0112 32.4-0.00464 4.59-0.00552 9.18-0.00341 13.8 0.00189 5.41-0.00625 10.8-0.0221 16.2-0.00423 1.98-0.0051 3.96-0.00231 5.95 0.00323 2.71-0.00589 5.42-0.0181 8.13 0.00378 0.78 0.00756 1.56 0.0115 2.36-0.0792 9.98-2.95 19.1-10.1 26.3-7.21 5.8-15.1 7.59-24.2 7.52-0.87 0.00539-1.74 0.0108-2.64 0.0163-2.89 0.0142-5.78 0.00719-8.68 5.29e-5 -2.08 0.00571-4.17 0.0127-6.25 0.0208-5.64 0.0179-11.3 0.0168-16.9 0.0111-4.72-0.00309-9.43 3e-3 -14.1 0.00904-11.1 0.014-22.3 0.0125-33.4 0.0011-11.5-0.0115-22.9 0.0026-34.4 0.0294-9.86 0.0222-19.7 0.0288-29.6 0.0229-5.88-0.00337-11.8-9.74e-4 -17.6 0.0163-5.53 0.0155-11.1 0.0115-16.6-0.00731-2.03-0.00368-4.05-5.97e-4 -6.08 0.00989-21.2 0.102-21.2 0.102-30.1-6.41-12.1-13-11.7-26-11.7-42.9-0.00435-2-0.00954-4.01-0.0155-6.01-0.0133-5.42-0.014-10.8-0.0114-16.3 0.00107-4.54-0.00382-9.07-0.00861-13.6-0.0111-10.7-0.0115-21.4-0.00549-32.1 0.00604-11-0.00628-22.1-0.0276-33.1-0.0176-9.48-0.0236-19-0.0204-28.4 0.00181-5.66-7.96e-4 -11.3-0.0147-17-0.0126-5.32-0.0106-10.6 0.00241-16 0.00236-1.95-3.5e-4 -3.89-0.00862-5.84-0.0984-25-0.0984-25 9.38-34.9 7.41-6.77 15-9.46 24.9-9.38zm28.1 62.4v138h138v-138c-3.83-0.766-6.74-1.13-10.6-1.13-1.66-0.00423-1.66-0.00423-3.35-0.00854-1.2 0.00202-2.41 0.00405-3.65 0.00613-1.28-0.00175-2.55-0.0035-3.86-0.00531-3.49-0.00455-6.98-0.00279-10.5 3.79e-4 -3.65 0.00253-7.3 1.83e-4 -11-0.00139-6.13-0.00182-12.3 5.75e-4 -18.4 0.00534-7.09 0.00545-14.2 0.00367-21.3-0.00183-6.09-0.00453-12.2-0.00518-18.3-0.00256-3.64 0.00156-7.27 0.00176-10.9-0.00154-4.05-0.00342-8.1 0.00131-12.1 0.0069-1.81-0.00304-1.81-0.00304-3.67-0.00613-1.65 0.00423-1.65 0.00423-3.33 0.00854-1.44 5.66e-4 -1.44 5.66e-4 -2.9 0.00114-2.31-0.0237-2.31-0.0237-4.28 1.13z" fill="#000002"/>
<path transform="translate(733 1096)" d="m0 0c5.87 4.3 10.9 9.24 16 14.4 0.894 0.899 1.79 1.8 2.71 2.72 2.35 2.37 4.7 4.74 7.05 7.12 3.32 3.36 6.65 6.72 9.99 10.1 1.77 1.78 3.54 3.57 5.3 5.36 0.795 0.801 1.59 1.6 2.41 2.43 1.05 1.06 1.05 1.06 2.12 2.15 1.66 1.71 1.66 1.71 3.74 2.64v2c3.09 1.76 4.23 2 8 2 2.32-1.77 2.32-1.77 4.61-4.22 1.36-1.38 1.36-1.38 2.75-2.79 0.481-0.498 0.963-0.996 1.46-1.51 1.51-1.57 3.04-3.12 4.57-4.67 3.8-3.86 7.58-7.73 11.4-11.6 3.19-3.27 6.39-6.53 9.6-9.78 1.49-1.52 2.97-3.05 4.45-4.58 8.34-8.52 16.8-15.2 29-16.2 8.64 0.284 16 3.37 22.2 9.31 6.88 7.53 9.66 14.8 9.34 25-1.58 14.1-12.9 23.9-22.5 33.4-0.948 0.949-1.9 1.9-2.84 2.85-1.96 1.97-3.93 3.93-5.9 5.89-2.53 2.52-5.05 5.04-7.57 7.57-2.41 2.42-4.83 4.83-7.25 7.25-0.905 0.909-1.81 1.82-2.74 2.76-0.835 0.829-1.67 1.66-2.53 2.51-1.1 1.1-1.1 1.1-2.23 2.22-1.82 1.57-1.82 1.57-3.82 1.57 2.13 3.87 4.52 6.75 7.67 9.83 0.461 0.454 0.921 0.909 1.4 1.38 0.995 0.98 1.99 1.96 2.99 2.93 1.59 1.55 3.17 3.11 4.74 4.67 4.48 4.44 8.98 8.86 13.5 13.3 2.76 2.71 5.51 5.42 8.26 8.15 1.04 1.03 2.09 2.05 3.14 3.08 8.57 8.35 15.3 15.9 15.6 28.3-0.111 9.15-3.12 16-9.39 22.6-7.08 6.46-14.8 9.25-24.4 9-13.3-1.28-21.7-11.1-30.6-20.1-1.04-1.05-2.08-2.09-3.13-3.14-2.72-2.73-5.43-5.46-8.15-8.2-2.78-2.8-5.56-5.59-8.35-8.39-5.44-5.47-10.9-10.9-16.3-16.4-3.53 1.5-5.76 3.54-8.44 6.26-0.872 0.881-1.74 1.76-2.64 2.67-0.461 0.471-0.923 0.943-1.4 1.43-1.46 1.49-2.92 2.96-4.38 4.44-4.16 4.2-8.31 8.41-12.5 12.6-2.54 2.58-5.09 5.16-7.64 7.73-0.964 0.975-1.93 1.95-2.88 2.93-9.14 9.35-18.4 17.7-32 18.3-8.63-0.322-16.2-3.48-22.4-9.45-5.7-6.59-9.32-15-9.03-23.8 1.86-13.4 11.1-22.3 20.4-31.4 1.49-1.45 2.98-2.91 4.46-4.38 4.21-4.15 8.43-8.3 12.7-12.4 2.61-2.54 5.2-5.09 7.79-7.66 0.984-0.97 1.97-1.94 2.97-2.9 1.38-1.34 2.74-2.69 4.11-4.04 0.781-0.763 1.56-1.53 2.37-2.31 1.73-1.96 1.73-1.96 1.56-4.11-1.4-2.76-3.22-4.53-5.45-6.68-0.942-0.922-1.88-1.84-2.85-2.79-0.506-0.489-1.01-0.978-1.53-1.48-1.59-1.54-3.18-3.09-4.76-4.65-4.49-4.42-9-8.82-13.5-13.2-2.77-2.69-5.52-5.39-8.27-8.11-1.04-1.02-2.09-2.04-3.14-3.05-8.63-8.29-15.7-17.3-16.8-29.6 0.145-8.63 4.16-17.4 10.3-23.4 10.7-7.94 24.7-11.7 36.7-3.9z" fill="#000002"/>
<path transform="translate(907 751)" d="m0 0c1.46 0.876 2.91 1.79 4.31 2.75 0.928 0.619 1.86 1.24 2.81 1.88 6.72 6.53 10.1 14.1 10.6 23.6-0.782 17.1-15.4 28.9-26.7 40.1-1.32 1.32-2.64 2.64-3.95 3.97-3.55 3.56-7.1 7.11-10.7 10.7-3.73 3.72-7.45 7.45-11.2 11.2-6.24 6.25-12.5 12.5-18.7 18.7-7.23 7.22-14.5 14.4-21.7 21.7-6.21 6.22-12.4 12.4-18.6 18.6-3.71 3.71-7.42 7.41-11.1 11.1-3.47 3.48-6.95 6.95-10.4 10.4-1.28 1.28-2.56 2.56-3.83 3.84-1.73 1.74-3.48 3.47-5.22 5.21-0.764 0.771-0.764 0.771-1.54 1.56-3.5 3.46-3.5 3.46-5.72 3.46v2c-8.26 6.87-16.1 9.64-26.8 9.34-13.2-1.43-22.9-12.8-31.7-21.7-0.913-0.906-1.83-1.81-2.77-2.74-0.862-0.864-1.72-1.73-2.61-2.62-0.781-0.783-1.56-1.57-2.37-2.37-1.69-1.95-1.69-1.95-1.69-3.95-0.573-0.249-1.15-0.498-1.74-0.755-2.6-1.43-4.36-3.08-6.46-5.17-1.23-1.21-1.23-1.21-2.48-2.45-0.876-0.877-1.75-1.75-2.65-2.66-0.91-0.906-1.82-1.81-2.76-2.74-1.93-1.92-3.85-3.84-5.77-5.77-2.44-2.44-4.89-4.88-7.34-7.31-2.36-2.34-4.71-4.7-7.07-7.05-1.31-1.29-1.31-1.29-2.64-2.61-8.53-8.6-15.8-17.1-17.1-29.5 0.17-8.36 2.59-15.6 8-22 7.83-7.13 15.1-10.6 25.7-10.2 13.2 1.43 22.3 10.9 31.2 19.9 1.02 1.02 2.04 2.05 3.06 3.07 2.66 2.67 5.3 5.34 7.95 8.02 2.71 2.74 5.43 5.47 8.15 8.21 5.31 5.34 10.6 10.7 15.9 16.1 3.7-1.55 6.04-3.81 8.86-6.64 0.474-0.475 0.948-0.951 1.44-1.44 1.59-1.59 3.16-3.19 4.74-4.79 1.14-1.14 2.27-2.29 3.41-3.43 2.45-2.46 4.89-4.93 7.34-7.39 3.87-3.91 7.75-7.8 11.6-11.7 11-11.1 22.1-22.2 33.1-33.3 6.08-6.13 12.2-12.3 18.3-18.4 3.85-3.87 7.7-7.74 11.5-11.6 2.4-2.42 4.81-4.84 7.22-7.25 1.11-1.11 2.21-2.23 3.32-3.35 12-12.2 27.4-23.1 44.9-14.5z" fill="#000002"/>
<path transform="translate(909,409)" d="m0 0c7.79 5.58 13.2 12.5 15 22 1.09 8.81-1.44 16.8-6.75 23.8-5.38 6.83-11.6 12.8-17.8 19-1.37 1.37-2.74 2.74-4.1 4.12-3.69 3.71-7.39 7.41-11.1 11.1-3.1 3.09-6.19 6.19-9.28 9.29-7.3 7.31-14.6 14.6-21.9 21.9-7.53 7.52-15 15.1-22.6 22.6-6.46 6.48-12.9 13-19.4 19.4-3.86 3.86-7.72 7.72-11.6 11.6-3.62 3.63-7.25 7.26-10.9 10.9-1.33 1.33-2.66 2.66-3.98 3.99-1.81 1.82-3.64 3.64-5.46 5.45-0.517 0.524-1.03 1.05-1.57 1.59-7.44 7.33-15.3 11.5-25.9 11.7-18.4-0.324-30.6-17.1-42.7-29.2-0.7-0.696-1.4-1.39-2.12-2.11-3.7-3.68-7.4-7.36-11.1-11-3.79-3.78-7.6-7.55-11.4-11.3-2.95-2.92-5.89-5.86-8.83-8.79-1.4-1.39-2.8-2.78-4.21-4.17-20.1-19.9-20.1-19.9-20.4-34.8 1.25-9.61 4.71-16.5 12-23 7.83-5.94 15.5-7.77 25.2-6.61 7.24 1.58 13.5 5.48 18.8 10.6v2c0.598 0.273 1.2 0.546 1.81 0.827 2.13 1.14 3.51 2.25 5.21 3.94 0.56 0.554 1.12 1.11 1.7 1.68 0.592 0.596 1.18 1.19 1.79 1.81 0.616 0.614 1.23 1.23 1.87 1.86 1.3 1.3 2.59 2.59 3.88 3.89 1.99 2 3.98 3.98 5.98 5.96 1.26 1.26 2.52 2.52 3.77 3.78 0.6 0.596 1.2 1.19 1.82 1.81 4.17 4.21 4.17 4.21 4.17 6.44 0.874 0.387 0.874 0.387 1.77 0.781 2.41 1.32 4.05 2.77 5.98 4.72 0.614 0.608 1.23 1.22 1.86 1.84 1.39 1.66 1.39 1.66 1.39 3.66h4c0.495-1.49 0.495-1.49 1-3 1.62-1.71 3.3-3.37 5-5 1.89-1.9 3.78-3.8 5.68-5.71 5.51-5.54 11-11.1 16.5-16.6 3.33-3.34 6.66-6.69 9.99-10 3.22-3.25 6.45-6.49 9.68-9.72 1.23-1.23 2.46-2.47 3.69-3.71 1.71-1.72 3.42-3.44 5.14-5.16 0.509-0.516 1.02-1.03 1.54-1.56 3.52-3.5 3.52-3.5 5.75-3.5 0.232-0.556 0.463-1.11 0.702-1.68 1.64-2.93 3.69-4.97 6.06-7.36 0.483-0.488 0.967-0.977 1.46-1.48 1.6-1.61 3.2-3.21 4.8-4.82 1.12-1.12 2.24-2.25 3.36-3.37 2.35-2.36 4.7-4.71 7.05-7.06 3-2.99 5.99-6 8.97-9 2.31-2.33 4.63-4.64 6.95-6.96 1.1-1.1 2.2-2.21 3.3-3.32 13-13.1 29.9-25.8 48.3-14z" fill="#000002"/>
<path transform="translate(648 1417)" d="m0 0c7.01 4.68 12.2 12.5 13.9 20.8 0.872 10.3-1.36 17.5-7.2 25.9-5.16 6.04-12.2 9.65-20.1 10.4-9.06 0.102-16.3-0.727-23.5-6.59-0.742-0.908-1.49-1.82-2.25-2.75-0.503-0.576-1.01-1.15-1.52-1.75-4.93-5.98-7.03-12.1-7.85-19.8 1.1-10.2 4.92-17 12.1-24.2 11.3-7.82 24.3-8.82 36.4-2.07z" fill="#000002"/>
</svg>
