<svg width="18" height="18" viewBox="0 0 18 18" fill="none" xmlns="http://www.w3.org/2000/svg">
<path d="M2 18C1.45 18 0.979002 17.804 0.587002 17.412C0.195002 17.02 -0.000664969 16.5493 1.69779e-06 16H2V18ZM1.69779e-06 14V12H2V14H1.69779e-06ZM1.69779e-06 10V8H2V10H1.69779e-06ZM1.69779e-06 6V4H2V6H1.69779e-06ZM1.69779e-06 2C1.69779e-06 1.45 0.196002 0.979002 0.588002 0.587002C0.980002 0.195002 1.45067 -0.000664969 2 1.69779e-06V2H1.69779e-06ZM4 14V4H14V14H4ZM4 18V16H6V18H4ZM4 2V1.69779e-06H6V2H4ZM6 12H12V6H6V12ZM8 18V16H10V18H8ZM8 2V1.69779e-06H10V2H8ZM12 18V16H14V18H12ZM12 2V1.69779e-06H14V2H12ZM16 18V16H18C18 16.55 17.804 17.021 17.412 17.413C17.02 17.805 16.5493 18.0007 16 18ZM16 14V12H18V14H16ZM16 10V8H18V10H16ZM16 6V4H18V6H16ZM16 2V1.69779e-06C16.55 1.69779e-06 17.021 0.196002 17.413 0.588002C17.805 0.980002 18.0007 1.45067 18 2H16Z" fill="#E9E9E9"/>
</svg>
