<svg width="64" height="63" viewBox="0 0 64 63" fill="none" xmlns="http://www.w3.org/2000/svg">
<path d="M24 49.2188C24 48.6966 24.2107 48.1959 24.5858 47.8266C24.9609 47.4574 25.4696 47.25 26 47.25H38C38.5304 47.25 39.0391 47.4574 39.4142 47.8266C39.7893 48.1959 40 48.6966 40 49.2188C40 49.7409 39.7893 50.2417 39.4142 50.6109C39.0391 50.9801 38.5304 51.1875 38 51.1875H26C25.4696 51.1875 24.9609 50.9801 24.5858 50.6109C24.2107 50.2417 24 49.7409 24 49.2188ZM12 31.7441C12 26.6175 16.94 22.6997 22.12 23.1761C28.6924 23.7795 35.3076 23.7795 41.88 23.1761C47.06 22.6997 52 26.6175 52 31.7441V36.2998C52.0188 37.1716 51.7209 38.0214 51.16 38.6963C50.599 39.3712 49.8118 39.8269 48.94 39.9814C45.56 40.5602 39.58 41.3438 32 41.3438C24.42 41.3438 18.44 40.5563 15.06 39.9814C14.1882 39.8269 13.401 39.3712 12.84 38.6963C12.2791 38.0214 11.9812 37.1716 12 36.2998V31.7441ZM30.168 28.4878C30.0121 28.4617 29.8522 28.4724 29.7013 28.5189C29.5504 28.5655 29.4129 28.6466 29.3 28.7556L25.62 32.2993C23.117 32.1516 20.6206 31.9112 18.136 31.5788C17.8785 31.5536 17.6212 31.6276 17.418 31.7853C17.2148 31.943 17.0816 32.172 17.0464 32.4243C17.0112 32.6767 17.0767 32.9326 17.2292 33.1384C17.3816 33.3441 17.6092 33.4837 17.864 33.5278C20.064 33.8271 22.792 34.1145 25.944 34.2878C26.0828 34.2955 26.2218 34.2746 26.3519 34.2264C26.4821 34.1783 26.6007 34.104 26.7 34.0082L29.716 31.1102L33.104 37.8433C33.1754 37.9846 33.2802 38.1069 33.4096 38.1999C33.539 38.293 33.6893 38.354 33.8477 38.3779C34.0061 38.4019 34.168 38.388 34.3198 38.3374C34.4716 38.2869 34.6089 38.2011 34.72 38.0875L38.448 34.2681C41.0194 34.1189 43.584 33.872 46.136 33.5278C46.3908 33.4837 46.6184 33.3441 46.7708 33.1384C46.9233 32.9326 46.9888 32.6767 46.9536 32.4243C46.9184 32.172 46.7852 31.943 46.582 31.7853C46.3788 31.6276 46.1215 31.5536 45.864 31.5788C43.712 31.8701 41.036 32.1497 37.944 32.3229C37.6923 32.3367 37.4551 32.4436 37.28 32.6222L34.264 35.7131L30.896 29.0194C30.8258 28.8806 30.7232 28.7601 30.5967 28.6677C30.4702 28.5754 30.3233 28.5137 30.168 28.4878Z" fill="#056F90"/>
<path d="M34 7.34748C34.7626 6.91409 35.3586 6.24511 35.6955 5.44432C36.0325 4.64352 36.0916 3.75564 35.8637 2.9184C35.6358 2.08116 35.1336 1.34133 34.435 0.813671C33.7365 0.28601 32.8805 0 32 0C31.1195 0 30.2635 0.28601 29.565 0.813671C28.8664 1.34133 28.3642 2.08116 28.1363 2.9184C27.9084 3.75564 27.9675 4.64352 28.3045 5.44432C28.6414 6.24511 29.2374 6.91409 30 7.34748V11.8126H22C17.2261 11.8126 12.6477 13.6794 9.27208 17.0023C5.89642 20.3252 4 24.832 4 29.5313V31.5001C2.93913 31.5001 1.92172 31.9149 1.17157 32.6534C0.421427 33.3918 0 34.3933 0 35.4376L0 43.3126C0 44.3569 0.421427 45.3584 1.17157 46.0968C1.92172 46.8353 2.93913 47.2501 4 47.2501V51.1876C4 53.2762 4.84285 55.2792 6.34315 56.7561C7.84344 58.2329 9.87827 59.0626 12 59.0626H52C54.1217 59.0626 56.1566 58.2329 57.6569 56.7561C59.1571 55.2792 60 53.2762 60 51.1876V47.2501C61.0609 47.2501 62.0783 46.8353 62.8284 46.0968C63.5786 45.3584 64 44.3569 64 43.3126V35.4376C64 34.3933 63.5786 33.3918 62.8284 32.6534C62.0783 31.9149 61.0609 31.5001 60 31.5001V29.5313C60 24.832 58.1036 20.3252 54.7279 17.0023C51.3523 13.6794 46.7739 11.8126 42 11.8126H34V7.34748ZM56 29.5313V51.1876C56 52.2319 55.5786 53.2334 54.8284 53.9718C54.0783 54.7103 53.0609 55.1251 52 55.1251H12C10.9391 55.1251 9.92172 54.7103 9.17157 53.9718C8.42143 53.2334 8 52.2319 8 51.1876V29.5313C8 25.8763 9.475 22.371 12.1005 19.7865C14.726 17.202 18.287 15.7501 22 15.7501H42C45.713 15.7501 49.274 17.202 51.8995 19.7865C54.525 22.371 56 25.8763 56 29.5313Z" fill="#056F90"/>
</svg>
